# xmcd
#
# Track frame offsets:
#	150
#	30357
#	46582
#	69655
#	82177
#	96552
#	116297
#	160017
#	175155
#	203145
#
# Disc length: 3223 seconds
#
# Revision: 1
# Processed by: cddbd v1.5.1PL2 Copyright (c) Steve Scherf et al.
# Submitted via: EasyCDDAExtractor 8.2.3.1
#
DISCID=790c950a
DTITLE=Various Artist - Rave Anthems 2 CD2:Hands In The Air
DYEAR=1900
DGENRE=Oldskool Rave
TTITLE0=Pizzaman - Trippin On Sunshine
TTITLE1=Snap - Rhythm Is A Dancer
TTITLE2=Rozalla - Are You Ready To Fly? (Kaliedoscope Mix)
TTITLE3=Sub Sub - Aint No Love (Aint No Use)
TTITLE4=Maradonna - Out Of My Head
TTITLE5=New Atlantic - I Know
TTITLE6=Sunscreem - Perfect Motion (Boys Own Mix)
TTITLE7=Love Decade - So Real
TTITLE8=Urban Cookie Collective - The Key The Secret (Glamerously Developed Mi
TTITLE8=x)
TTITLE9=Secret Life - As Always
EXTD=RAVE ANTHEMS 2 DISK 2 OF 3
EXTT0=
EXTT1=
EXTT2=
EXTT3=
EXTT4=
EXTT5=
EXTT6=
EXTT7=
EXTT8=
EXTT9=
PLAYORDER=
